<svg width="183" height="145" viewBox="0 0 183 145" fill="none" xmlns="http://www.w3.org/2000/svg">
<path d="M89.1352 142.413L87.0892 141.748L88.4204 140.058C90.7721 137.072 93.7816 131.955 95.1321 126.399C96.479 120.858 96.1349 115.107 92.1589 110.482C91.0686 109.214 88.9395 108.068 85.7199 107.043C82.5529 106.035 78.5696 105.215 74.0202 104.445C70.8392 103.906 67.3758 103.392 63.7539 102.855C57.1187 101.871 49.9518 100.808 43.0157 99.369C32.2696 97.1403 21.7312 93.9528 14.0004 88.5464C6.17601 83.0746 1.20712 75.3017 1.8062 64.145C2.95067 42.8312 8.54739 26.1745 16.2072 15.4388C23.8462 4.73236 33.7895 -0.347299 43.4231 2.45038C46.9228 3.46675 54.3465 4.85071 64.1039 6.66975C66.3128 7.08155 68.6413 7.51565 71.0709 7.97283C84.1632 10.4363 100.055 13.5476 115.562 17.4008C131.054 21.2501 146.238 25.8577 157.885 31.3333C163.708 34.0704 168.713 37.0546 172.442 40.3168C176.163 43.5727 178.732 47.2114 179.431 51.2662C181.949 65.8718 180.413 82.0346 176.366 95.5852C174.342 102.366 171.677 108.534 168.542 113.551C165.418 118.551 161.768 122.503 157.731 124.713C151.335 128.216 143.108 128.345 135.631 127.225C128.739 126.193 122.257 124.066 117.983 122.246C114.968 126.235 110.35 131.601 105.441 135.831C102.785 138.12 99.9861 140.127 97.2629 141.389C94.5635 142.64 91.7272 143.255 89.1352 142.413Z" fill="white" stroke="#E3F3FF" stroke-width="3"/>
</svg>
