<svg width="181" height="144" viewBox="0 0 181 144" fill="none" xmlns="http://www.w3.org/2000/svg">
<path d="M120.751 104.567C133.929 106.263 138.255 122.246 138.77 130.025C146.597 126.54 146.578 106.295 145.591 96.6075C154.033 93.9339 172.02 85.4293 176.434 72.7999C181.951 57.0132 166.922 24.1792 144.425 6.44984C121.929 -11.2796 30.6685 52.6024 14.5064 60.4182C-1.65558 68.2341 -0.923378 98.2886 25.2175 130.671C51.3583 163.053 104.279 102.446 120.751 104.567Z" fill="white"/>
<path d="M139.38 131.395L137.416 132.27L137.274 130.124C137.026 126.395 135.857 120.675 133.189 115.727C130.528 110.791 126.497 106.819 120.56 106.054C118.936 105.845 116.633 106.405 113.607 107.774C110.632 109.12 107.184 111.141 103.354 113.571C100.677 115.27 97.8099 117.173 94.811 119.163C89.3161 122.81 83.3801 126.749 77.3665 130.262C68.0496 135.704 58.2503 140.31 49.0396 141.444C39.7153 142.592 30.9613 140.174 24.0503 131.613C10.8566 115.269 3.97945 99.3999 2.50805 86.5021C1.04075 73.6404 4.96094 63.3682 13.8534 59.0679C17.0774 57.5088 23.4091 53.6368 31.7333 48.5463C33.6179 47.3938 35.6047 46.1789 37.6806 44.9142C48.865 38.1004 62.5212 29.9178 76.3849 22.5308C90.2347 15.1512 104.359 8.52873 116.473 4.86785C122.529 3.03786 128.151 1.92608 133.026 1.85809C137.89 1.79023 142.168 2.76144 145.353 5.27173C156.809 14.2995 166.326 27.1348 172.29 39.7106C175.274 46.0034 177.388 52.2707 178.401 58.005C179.41 63.7198 179.345 69.0162 177.85 73.2948C175.481 80.0732 169.55 85.5858 163.351 89.6881C157.643 93.4646 151.516 96.1724 147.196 97.6567C147.618 102.558 147.775 109.513 146.974 115.83C146.54 119.254 145.816 122.566 144.657 125.284C143.507 127.978 141.837 130.301 139.38 131.395Z" stroke="#3E85F3" stroke-opacity="0.2" stroke-width="3"/>
</svg>
