<svg width="20" height="20" viewBox="0 0 20 20" fill="none" xmlns="http://www.w3.org/2000/svg">
<path d="M17.5 8.33335H2.5M17.5 10.4167V7.33335C17.5 5.93322 17.5 5.23316 17.2275 4.69838C16.9878 4.22797 16.6054 3.84552 16.135 3.60584C15.6002 3.33335 14.9001 3.33335 13.5 3.33335H6.5C5.09987 3.33335 4.3998 3.33335 3.86502 3.60584C3.39462 3.84552 3.01217 4.22797 2.77248 4.69838C2.5 5.23316 2.5 5.93322 2.5 7.33335V14.3334C2.5 15.7335 2.5 16.4336 2.77248 16.9683C3.01217 17.4387 3.39462 17.8212 3.86502 18.0609C4.3998 18.3334 5.09987 18.3334 6.5 18.3334H10M13.3333 1.66669V5.00002M6.66667 1.66669V5.00002M12.0833 15.8334L13.75 17.5L17.5 13.75"  stroke-width="1.8" stroke-linecap="round" stroke-linejoin="round"/>
</svg>
